<?xml version="1.0" standalone="no"?>
<!DOCTYPE svg PUBLIC "-//W3C//DTD SVG 20010904//EN"
 "http://www.w3.org/TR/2001/REC-SVG-20010904/DTD/svg10.dtd">
<svg version="1.0" xmlns="http://www.w3.org/2000/svg"
 width="177.000000pt" height="177.000000pt" viewBox="0 0 177.000000 177.000000"
 preserveAspectRatio="xMidYMid meet">
<metadata>
Created by potrace 1.11, written by Peter Selinger 2001-2013
</metadata>
<g transform="translate(0.000000,177.000000) scale(0.100000,-0.100000)"
fill="#000000" stroke="none">
<path d="M128 1736 c-55 -12 -88 -30 -88 -47 0 -16 57 -38 216 -84 88 -25 217
-68 287 -95 71 -28 141 -50 155 -50 32 0 137 28 282 75 92 30 144 44 338 95
82 21 42 56 -106 92 -81 20 -118 22 -557 24 -348 2 -485 0 -527 -10z"/>
<path d="M7 1634 c-14 -14 -8 -673 8 -831 24 -239 58 -457 80 -515 10 -24 54
-55 187 -132 197 -113 257 -136 345 -136 l76 0 -8 312 c-5 172 -9 482 -9 688
-1 206 -5 381 -10 389 -14 23 -165 86 -370 155 -189 65 -283 86 -299 70z m163
-177 c0 -6 -7 -44 -15 -82 -8 -39 -15 -89 -15 -112 0 -24 -4 -43 -10 -43 -21
0 -40 60 -40 125 0 81 20 125 55 125 14 0 25 -6 25 -13z m313 -1272 c20 -8 52
-15 72 -15 24 0 35 -5 35 -15 0 -23 -33 -35 -70 -25 -33 9 -80 46 -80 62 0 11
2 10 43 -7z"/>
<path d="M1265 1600 c-231 -54 -469 -132 -529 -173 l-28 -20 5 -656 c3 -361 8
-665 10 -676 3 -11 6 -28 6 -37 1 -16 14 -18 134 -18 132 0 157 6 157 36 0 7
-26 28 -58 48 -85 51 -91 61 -101 157 -14 129 -23 402 -15 444 5 30 13 40 43
52 20 9 41 16 46 17 6 1 15 5 21 8 18 12 64 28 64 23 0 -3 -20 -14 -45 -26
-60 -28 -89 -64 -73 -92 15 -28 39 -52 61 -60 35 -13 15 -24 -40 -23 l-58 1 2
-170 c1 -93 6 -190 10 -214 8 -42 12 -46 95 -96 48 -28 112 -60 143 -70 49
-17 57 -18 65 -5 8 13 12 143 15 432 l0 53 -60 22 -60 21 45 21 c25 11 51 21
58 21 6 0 12 5 12 11 0 5 5 7 10 4 6 -3 10 -2 10 2 0 5 19 17 43 27 91 40 105
48 110 66 5 20 -23 37 -41 26 -5 -3 -26 3 -47 14 -44 22 -73 20 -147 -12 -82
-35 -98 -70 -64 -138 17 -34 8 -43 -31 -34 -41 10 -45 14 -29 29 7 8 11 25 9
39 -7 35 27 78 79 101 24 11 46 23 49 28 3 5 9 8 13 8 16 -2 18 0 6 14 -9 11
-25 14 -51 11 -22 -3 -39 -1 -39 3 0 4 6 8 13 9 6 1 63 15 126 32 62 16 117
27 122 24 5 -3 9 -18 9 -34 0 -41 10 -60 29 -60 27 0 31 -10 16 -34 -14 -21
-15 -24 -15 -50 0 -8 -10 -17 -22 -21 -52 -14 -127 -60 -142 -86 -20 -35 -13
-54 14 -39 13 7 21 7 25 0 6 -9 0 -13 -15 -12 -3 0 -6 -7 -6 -16 -1 -9 -7 -68
-14 -131 -12 -112 -10 -347 4 -369 13 -22 167 -15 221 9 53 24 207 115 273
162 l42 30 0 234 0 233 -27 6 c-16 4 -55 -1 -100 -15 -41 -12 -78 -19 -84 -16
-5 4 -9 2 -9 -3 0 -12 -59 -34 -70 -27 -5 3 -10 -1 -13 -7 -4 -10 -7 -11 -18
-1 -13 13 -2 17 39 16 6 -1 12 4 12 9 0 5 6 8 12 6 7 -3 19 2 27 9 8 8 21 13
30 10 9 -2 22 2 29 10 7 7 22 13 33 13 41 0 32 65 -15 109 -22 21 -76 25 -104
7 -6 -4 -12 -4 -12 1 0 4 -4 2 -9 -5 -4 -7 -14 -14 -22 -15 -8 -2 -21 -7 -29
-11 -8 -5 -4 3 10 18 l25 28 3 367 c2 231 -1 378 -7 394 -13 34 -30 34 -186
-3z m100 -159 c13 -62 23 -309 13 -366 -1 -11 -24 -35 -33 -36 -5 0 -60 -21
-100 -38 -24 -11 -148 -55 -155 -56 -3 -1 -32 -9 -65 -20 -119 -37 -176 -48
-200 -39 -15 6 -17 29 -18 219 0 216 1 225 33 239 14 6 27 13 30 17 3 3 29 12
58 19 28 8 52 17 52 20 0 4 6 7 13 8 18 1 52 9 116 28 31 9 64 18 74 20 46 11
57 13 93 18 21 4 40 8 42 11 11 11 41 -17 47 -44z m-310 -631 c-3 -5 -12 -10
-18 -10 -7 0 -6 4 3 10 19 12 23 12 15 0z m349 -190 c-10 -4 -23 -5 -28 -2 -5
3 -1 9 10 12 10 4 23 5 28 2 5 -3 1 -9 -10 -12z m-39 -10 c3 -5 1 -10 -4 -10
-6 0 -11 5 -11 10 0 6 2 10 4 10 3 0 8 -4 11 -10z m-75 -24 c0 -2 -6 -9 -14
-15 -11 -9 -16 -9 -22 0 -4 7 -3 9 4 5 6 -3 13 -2 17 4 6 10 15 14 15 6z m337
-80 c0 -16 -90 -69 -101 -59 -3 3 -6 1 -6 -5 0 -7 -7 -12 -15 -12 -9 0 -34 -9
-55 -19 -31 -15 -41 -16 -50 -6 -6 7 -8 19 -4 28 5 15 58 45 92 52 9 2 35 10
57 19 52 19 82 20 82 2z"/>
<path d="M1250 1443 c-30 -8 -62 -15 -70 -18 -8 -2 -39 -10 -67 -17 -29 -7
-53 -16 -53 -21 0 -4 -4 -5 -10 -2 -5 3 -16 3 -22 -2 -7 -4 -20 -8 -28 -10 -8
-1 -16 -6 -18 -12 -2 -5 -10 -7 -18 -4 -8 3 -14 0 -14 -6 0 -6 -6 -8 -14 -5
-7 3 -22 -3 -31 -13 -10 -10 -20 -17 -22 -15 -8 6 -23 1 -19 -7 4 -5 0 -11 -6
-13 -10 -4 -13 -45 -13 -164 1 -185 7 -208 58 -198 18 3 37 7 44 8 7 1 15 5
19 8 3 4 12 4 20 1 8 -3 14 -1 14 3 0 5 12 10 26 11 15 0 29 5 33 10 3 4 15 9
27 10 11 1 34 8 50 14 16 7 31 13 34 14 3 1 20 6 38 10 17 4 32 12 32 17 0 5
5 6 10 3 6 -3 10 -1 10 5 0 6 5 8 11 4 6 -3 14 -3 18 2 3 5 15 14 26 20 22 12
25 30 29 179 5 196 -2 210 -94 188z m-40 -148 c-8 -15 -18 -21 -28 -18 -10 4
-13 2 -8 -5 5 -8 2 -10 -8 -6 -9 3 -16 1 -16 -6 0 -6 -4 -9 -8 -6 -5 3 -20 -1
-35 -9 -15 -8 -27 -11 -27 -8 0 3 -6 1 -12 -5 -18 -13 -78 -26 -79 -15 0 4 -2
16 -4 26 -2 9 0 15 5 12 4 -3 13 2 20 10 7 8 16 12 21 9 5 -3 9 0 9 6 0 6 4 9
8 6 5 -3 44 8 88 23 81 29 96 27 74 -14z"/>
</g>
</svg>
